<?xml version="1.0" encoding="utf-8"?>
<!-- Generator: Adobe Illustrator 27.2.0, SVG Export Plug-In . SVG Version: 6.00 Build 0)  -->
<svg version="1.1" id="Layer_1" xmlns="http://www.w3.org/2000/svg" xmlns:xlink="http://www.w3.org/1999/xlink" x="0px" y="0px"
	 viewBox="0 0 69.4 97.2" style="enable-background:new 0 0 69.4 97.2;" xml:space="preserve">
<style type="text/css">
	.st0{fill:#206A00;stroke:#206A00;stroke-width:2;stroke-miterlimit:10;}
</style>
<path class="st0" d="M39.4,5.8c-0.3-1.1-1.2-2-2.4-2.2c-1.2-0.2-2.3,0.3-3,1.3L19.5,26.4c-0.9,1.4-0.6,3.2,0.8,4.2
	c1.4,0.9,3.2,0.6,4.2-0.8L34,15.7c0,3.7,0,8-0.1,12.6c-0.4,0.8-1.1,2-2.2,3.5c-1.4,1.9-3.1,4.1-5,6.4c-3.8,4.6-8.1,9.3-10.9,12.3
	c-1.1,1.2-1.1,3.1,0.1,4.2c1.2,1.1,3.1,1.1,4.2-0.1c2.9-3,7.3-7.9,11.2-12.6c0.7-0.9,1.4-1.7,2.1-2.6c-0.1,2.7-0.3,5.4-0.4,8.1
	c-0.1,1.8-0.2,3.6-0.3,5.4c-0.1,0.2-0.2,0.4-0.2,0.7c-0.1,0.5-0.6,1.7-1.7,3.5c-1,1.7-2.4,3.7-4,5.8c-3.1,4.2-6.7,8.5-9.1,11.2
	c-1.1,1.2-1,3.1,0.3,4.2c1.2,1.1,3.1,1,4.2-0.3c2.5-2.8,6.2-7.3,9.4-11.6c0.1-0.1,0.2-0.2,0.2-0.3c-0.6,9.3-1.3,17.9-1.9,24.2
	c-0.1,1.7,1.1,3.1,2.7,3.3c1.7,0.1,3.1-1.1,3.3-2.7c0.6-6.5,1.3-15.5,2-25.4c2.8,4.1,6.9,9.4,12.9,15.6c1.1,1.2,3,1.3,4.2,0.1
	c1.2-1.1,1.3-3,0.1-4.2C48.7,70.2,44.5,64.7,42,60.7c-1.3-2-2.1-3.6-2.7-4.8c-0.3-0.6-0.5-1.1-0.6-1.4c0.1-2.2,0.3-4.4,0.4-6.6
	c0.1-1.4,0.2-2.9,0.2-4.3c2.9,4.8,7.1,10.2,13.2,15.8c1.2,1.1,3.1,1,4.2-0.2c1.1-1.2,1-3.1-0.2-4.2C42.9,42.4,40,31.7,40,28.6
	c0-0.3,0-0.6-0.1-0.9c0.1-3.1,0.1-6,0.1-8.8c2.3,2.8,5.3,5.5,9,7.7c1.4,0.8,3.3,0.4,4.1-1.1c0.8-1.4,0.4-3.3-1.1-4.1
	C44.1,16.8,40.3,8.9,39.4,5.8z"/>
</svg>
